PathFileType	4	(X/Y/Z)	./resultDataOpenSim/trcMotMarkerGrf/sub10/qtm-03-01.trc
DataRate	CameraRate	NumFrames	NumMarkers	Units	OrigDataRate	OrigDataStartFrame	OrigNumFrames
250.000000	250.000000	14	24	m	250.000000	121	482
Frame#	Time	L.Toe.Tip			R.Toe.Tip			L.Ankle.Lat			R.Ankle.Lat			L.Ankle.Med			R.Ankle.Med			L.Heel			R.Heel			L.Knee.Lat			R.Knee.Lat			L.Knee.Med			R.Knee.Med			L.Thigh.Upper			R.Thigh.Upper			L.ASIS			R.ASIS			V.Sacral			L.Acromium			R.Acromium			C7			L.Elbow			R.Elbow			L.Wrist.Lat			R.Wrist.Lat
		X1	Y1	Z1	X2	Y2	Z2	X3	Y3	Z3	X4	Y4	Z4	X5	Y5	Z5	X6	Y6	Z6	X7	Y7	Z7	X8	Y8	Z8	X9	Y9	Z9	X10	Y10	Z10	X11	Y11	Z11	X12	Y12	Z12	X13	Y13	Z13	X14	Y14	Z14	X15	Y15	Z15	X16	Y16	Z16	X17	Y17	Z17	X18	Y18	Z18	X19	Y19	Z19	X20	Y20	Z20	X21	Y21	Z21	X22	Y22	Z22	X23	Y23	Z23	X24	Y24	Z24

121	0.48	-0.30370943	0.068081859	-0.15148064	-0.74760049	0.03957687	-0.0095347082	-0.44053295	0.086460703	-0.16931694	-0.8898674	0.054220371	0.024439873	-0.42423284	0.11632643	-0.089759671	-0.86863116	0.080552268	-0.06137406	-0.49302834	0.056982561	-0.1072757	-0.93930106	0.030513017	-0.024357104	-0.50231178	0.47468532	-0.20424854	-0.76466485	0.43740914	0.066080717	-0.47032987	0.45830718	-0.084671177	-0.75488197	0.44391992	-0.063543165	-0.65206803	0.83076779	-0.24982016	-0.72317437	0.85149533	0.12889295	-0.61056093	0.93689696	-0.17378362	-0.63799864	0.94093477	0.069219119	-0.82213433	0.95176223	-0.078677891	-0.66737937	1.410242	-0.21759015	-0.69542775	1.4081803	0.10340246	-0.76182158	1.4373779	-0.06485228	-0.7970463	1.0904278	-0.26364634	-0.75671387	1.05888	0.16944998	-0.68538658	0.87703294	-0.30922913	-0.56893503	0.90035511	0.20929059
122	0.484	-0.28677328	0.068266434	-0.1493115	-0.74750543	0.03945286	-0.0095617777	-0.42383089	0.086007898	-0.16983712	-0.88977802	0.05431091	0.02431506	-0.40855981	0.11665913	-0.090286429	-0.86835681	0.080491613	-0.061546731	-0.47665062	0.057096356	-0.10832938	-0.93926937	0.030706059	-0.024474904	-0.49549557	0.47273812	-0.20437331	-0.76141975	0.4366112	0.065827201	-0.46444418	0.45655023	-0.084736889	-0.75160942	0.44320635	-0.063996942	-0.64488649	0.82975717	-0.24975562	-0.71913964	0.85043777	0.12857602	-0.60371025	0.93586252	-0.17351774	-0.63359861	0.93978851	0.069337602	-0.81693537	0.95016541	-0.080981298	-0.66161462	1.4088294	-0.21768242	-0.69027045	1.4070126	0.10317616	-0.75682131	1.4360149	-0.066117466	-0.79296532	1.0898891	-0.26422698	-0.74910067	1.0571188	0.16932748	-0.68337158	0.87569889	-0.3108037	-0.55896357	0.90094835	0.20771247
123	0.488	-0.27023428	0.068470877	-0.14714614	-0.74741229	0.039349839	-0.009583418	-0.40742483	0.085745137	-0.17046294	-0.88963314	0.054419495	0.024197731	-0.393235	0.1170813	-0.090928786	-0.86809487	0.080423213	-0.061736982	-0.46063282	0.05739991	-0.10956872	-0.93922824	0.030917226	-0.0246003	-0.48869522	0.47075278	-0.20446937	-0.75809402	0.43584708	0.065586826	-0.45867722	0.45464265	-0.084863351	-0.74823888	0.44243592	-0.064454116	-0.63781744	0.82864692	-0.24967308	-0.71506534	0.84927225	0.12832779	-0.59698625	0.93476835	-0.17329559	-0.62910372	0.93866003	0.069471862	-0.81125446	0.94854213	-0.082535162	-0.65603081	1.4073606	-0.21781827	-0.68513001	1.4057947	0.10297672	-0.75188654	1.4345961	-0.067606744	-0.78897035	1.0892906	-0.2649667	-0.74150325	1.055322	0.16919202	-0.68133345	0.87433039	-0.31237599	-0.5490017	0.90154021	0.20611989
124	0.492	-0.2541158	0.068749595	-0.14497545	-0.74732472	0.039271916	-0.0095916795	-0.39136583	0.085676102	-0.1711869	-0.88950067	0.054533091	0.024075823	-0.37829337	0.11757358	-0.091659717	-0.86782077	0.080359904	-0.061933092	-0.44500545	0.057846929	-0.11099946	-0.93917699	0.031139846	-0.024738459	-0.48193383	0.46874735	-0.20453309	-0.75472815	0.43507806	0.065329318	-0.45294749	0.45259432	-0.084973964	-0.74477206	0.44159863	-0.064887046	-0.63090046	0.8274383	-0.24958837	-0.71094102	0.84805956	0.12809492	-0.59028043	0.93362458	-0.17309366	-0.62431077	0.93758926	0.069626114	-0.8052864	0.94698404	-0.083384733	-0.65053156	1.4058298	-0.2179705	-0.68001493	1.404507	0.10280955	-0.7468313	1.4331324	-0.068789654	-0.78507496	1.0886439	-0.26587551	-0.73392096	1.0534914	0.16904201	-0.67927546	0.8729294	-0.31393736	-0.53907132	0.90212094	0.20451895
125	0.496	-0.2384444	0.069160169	-0.14280756	-0.74724842	0.039206877	-0.0095805894	-0.37569744	0.085792127	-0.17200896	-0.88937474	0.054645527	0.023934548	-0.3637696	0.11811931	-0.092452989	-0.86752493	0.080307104	-0.062134993	-0.42980114	0.058403048	-0.11266026	-0.93911819	0.031368665	-0.024894729	-0.47522557	0.46672773	-0.20455932	-0.75124887	0.43427354	0.065050697	-0.44723171	0.45041715	-0.085031288	-0.74122943	0.4406928	-0.065264421	-0.62399706	0.82615346	-0.24948657	-0.70674593	0.84689728	0.1277833	-0.5835168	0.93244362	-0.17289094	-0.61922668	0.93654805	0.069773378	-0.79918994	0.94554399	-0.083867675	-0.64491595	1.4042404	-0.21809456	-0.67490558	1.4031412	0.10266195	-0.74158455	1.4316306	-0.069454008	-0.78118983	1.0879491	-0.26684191	-0.72635271	1.0516329	0.16887363	-0.6772071	0.87150103	-0.31547798	-0.52920756	0.90268748	0.20292038
126	0.5	-0.22326566	0.069748012	-0.14066729	-0.74718757	0.03914781	-0.0095486191	-0.36045331	0.086082198	-0.1729292	-0.88920673	0.05476841	0.023758332	-0.3497001	0.11870231	-0.093281443	-0.86721437	0.080266534	-0.062340572	-0.41505944	0.059039949	-0.11459451	-0.93905615	0.031606049	-0.025080027	-0.46854997	0.46470151	-0.2045642	-0.74760492	0.43338404	0.064726344	-0.4415369	0.44812127	-0.085024121	-0.73764015	0.43972401	-0.065576616	-0.61687701	0.82482004	-0.24932895	-0.70247119	0.84581688	0.12736422	-0.57669375	0.93123549	-0.17267374	-0.61398205	0.93544173	0.069852648	-0.79286535	0.94405142	-0.084469506	-0.63912204	1.4026029	-0.21817533	-0.66977376	1.4017109	0.10251728	-0.73621642	1.4300894	-0.06978339	-0.777197	1.0872002	-0.26773249	-0.71879895	1.0497531	0.16868438	-0.67512771	0.87004739	-0.31699645	-0.51941629	0.90324791	0.20131501
127	0.504	-0.20863329	0.070525856	-0.13858702	-0.74714192	0.039094448	-0.0094973788	-0.3456575	0.086545506	-0.17394227	-0.8890214	0.054918074	0.02353968	-0.3361181	0.11929858	-0.094122915	-0.86690645	0.080238299	-0.062542796	-0.40081827	0.059722334	-0.11678309	-0.93899328	0.031861057	-0.025297697	-0.4618619	0.46268562	-0.20457193	-0.74404003	0.43237449	0.064306161	-0.43587382	0.44572102	-0.084956072	-0.73403079	0.43870151	-0.06584888	-0.60944974	0.82344129	-0.24909929	-0.69813025	0.8447781	0.12689116	-0.56983416	0.93000736	-0.1724325	-0.60865752	0.9341981	0.069818493	-0.78620671	0.94222398	-0.085623343	-0.63328873	1.400923	-0.21823654	-0.66460135	1.4002332	0.10236398	-0.73081719	1.4285029	-0.07002352	-0.77306284	1.0863994	-0.26853569	-0.71126828	1.0478493	0.16847738	-0.67302245	0.8685659	-0.31849575	-0.50968659	0.90381372	0.19968211
128	0.508	-0.19457937	0.071469109	-0.13660134	-0.74710846	0.039046975	-0.0094322741	-0.33130819	0.087185455	-0.17503894	-0.88889926	0.055101836	0.023291314	-0.32307136	0.1198619	-0.094974798	-0.86662086	0.080219538	-0.062743047	-0.38708273	0.060392926	-0.1191429	-0.93892928	0.03214287	-0.025534579	-0.45511977	0.46070418	-0.20458858	-0.74112406	0.4312971	0.063764412	-0.43024317	0.44323977	-0.084837552	-0.73040927	0.43763367	-0.066113165	-0.60188092	0.82198427	-0.24882971	-0.69372854	0.84372631	0.12641211	-0.56294631	0.92875706	-0.17216532	-0.6033156	0.93284864	0.069706372	-0.77940112	0.94006091	-0.087218444	-0.62756949	1.399199	-0.21831037	-0.65938046	1.3987128	0.10219388	-0.72542923	1.4268693	-0.070288873	-0.76883143	1.0855567	-0.26933735	-0.70377712	1.0459097	0.16825879	-0.67087813	0.8670512	-0.31997987	-0.50002485	0.90439095	0.19802204
129	0.512	-0.18110567	0.072528248	-0.13474351	-0.74708412	0.039004331	-0.0093614902	-0.31737976	0.087988631	-0.17619899	-0.88885207	0.055318399	0.02303949	-0.31065237	0.1203153	-0.095861165	-0.86637511	0.080202731	-0.062957365	-0.37380062	0.060956915	-0.12161597	-0.93886506	0.032457886	-0.025774456	-0.44830938	0.45878097	-0.2045928	-0.73907557	0.43026144	0.063147256	-0.4246296	0.44070628	-0.084674924	-0.72675939	0.43653145	-0.066367931	-0.59439941	0.82040985	-0.24856194	-0.68924751	0.84262243	0.1259257	-0.55600436	0.92747955	-0.17187199	-0.59804436	0.93149087	0.069605514	-0.77281015	0.93786455	-0.088684483	-0.62197151	1.3974295	-0.21841068	-0.65411437	1.3971455	0.10200255	-0.72005588	1.4251936	-0.0705912	-0.76454532	1.0846823	-0.2701961	-0.69633822	1.0439283	0.16803046	-0.66869137	0.86550101	-0.32145103	-0.49045053	0.90498026	0.19635002
130	0.516	-0.16819804	0.073645245	-0.13304181	-0.74706689	0.038964977	-0.0092916042	-0.30387744	0.088905838	-0.17738696	-0.88880612	0.05555964	0.022805467	-0.29896496	0.12057629	-0.096813191	-0.86617111	0.08018264	-0.063195062	-0.36086523	0.061262496	-0.12423987	-0.93880419	0.032809836	-0.026017849	-0.44145699	0.45693196	-0.2045546	-0.73727445	0.42929527	0.062540869	-0.41901603	0.43815849	-0.084468327	-0.72306685	0.43541452	-0.066587682	-0.58706612	0.81871103	-0.24829995	-0.68467056	0.84145512	0.12541423	-0.5489799	0.92617854	-0.17155532	-0.59288033	0.93017804	0.069567611	-0.76660221	0.93585952	-0.089678276	-0.6164128	1.3956193	-0.2185321	-0.6488225	1.3955313	0.10179426	-0.71468213	1.4234849	-0.070915974	-0.76020722	1.0837781	-0.27108615	-0.68895368	1.0419112	0.16778863	-0.66646165	0.86392151	-0.32290632	-0.48097281	0.90557785	0.19466884
131	0.52	-0.15584624	0.074765889	-0.13152454	-0.74705655	0.038927996	-0.0092251629	-0.29088139	0.089852744	-0.1785691	-0.88870536	0.055807528	0.022596352	-0.28802338	0.12062236	-0.09784636	-0.86597331	0.080172051	-0.063430902	-0.3481865	0.061162015	-0.12707508	-0.93874962	0.033196181	-0.026281797	-0.43461576	0.45516148	-0.20446637	-0.73496835	0.42831846	0.062012358	-0.41339981	0.4356504	-0.084229247	-0.71934388	0.43430114	-0.066763704	-0.57979827	0.81691154	-0.24802459	-0.67999653	0.84023347	0.12487072	-0.54190727	0.92485989	-0.17122696	-0.58778293	0.92889039	0.06958685	-0.76067575	0.93403609	-0.090304426	-0.61084086	1.3937777	-0.21866487	-0.64352772	1.3938749	0.10157973	-0.7092932	1.4217494	-0.071256896	-0.75580334	1.0828374	-0.27194454	-0.68162201	1.0398686	0.16753059	-0.66419418	0.86232368	-0.32434658	-0.47158997	0.90617556	0.19297019
132	0.524	-0.14406288	0.07583668	-0.13022913	-0.74705395	0.038894184	-0.0091621754	-0.27850695	0.090735798	-0.17972386	-0.8885719	0.056042841	0.022407164	-0.27771114	0.12051775	-0.098962675	-0.86572316	0.080197826	-0.063623643	-0.33583426	0.06069412	-0.13002441	-0.93870176	0.033606674	-0.026579029	-0.42782223	0.45347134	-0.20435636	-0.7320924	0.4272772	0.061595124	-0.40778195	0.43324272	-0.083990354	-0.71562014	0.43319647	-0.066911851	-0.57250232	0.81503291	-0.24773247	-0.67523253	0.83896719	0.12430108	-0.53487368	0.92351737	-0.17089575	-0.58269399	0.92759123	0.069641511	-0.754869	0.93229798	-0.090790214	-0.60525373	1.3919123	-0.21880585	-0.63822996	1.3921806	0.10136371	-0.7038956	1.4199855	-0.07160682	-0.75133141	1.0818525	-0.2727382	-0.67434424	1.0378083	0.16725733	-0.66192357	0.8607139	-0.32579061	-0.46230142	0.90676724	0.19125132
133	0.528	-0.13287756	0.076789156	-0.12920465	-0.747059	0.038865088	-0.0091029396	-0.26682979	0.091480956	-0.18082228	-0.88846119	0.05626571	0.022228213	-0.26785621	0.12033619	-0.10012374	-0.86539762	0.080270681	-0.063768616	-0.32404616	0.060099373	-0.13279847	-0.93865918	0.03403185	-0.02690272	-0.42105095	0.45187675	-0.20427167	-0.72905091	0.42621418	0.061268738	-0.40214623	0.43098294	-0.083788046	-0.71191499	0.43209708	-0.06705269	-0.56512647	0.81307908	-0.24743417	-0.67039593	0.83766431	0.12372794	-0.52793253	0.92213302	-0.1705575	-0.57758397	0.92626871	0.069727295	-0.74906651	0.93057918	-0.091247616	-0.59966408	1.3900283	-0.21895986	-0.63290042	1.3904528	0.10113672	-0.69852753	1.4181881	-0.071945155	-0.74679791	1.0808197	-0.27347855	-0.66711946	1.0357332	0.16696867	-0.65972379	0.85908834	-0.32727244	-0.4531119	0.9073554	0.18951997
134	0.532	-0.12230689	0.077532261	-0.12851014	-0.74706936	0.038840331	-0.0090490883	-0.25587109	0.092034603	-0.18181488	-0.88838785	0.05650109	0.022050731	-0.25833369	0.12007567	-0.10121713	-0.86503117	0.080376498	-0.063900186	-0.31301994	0.059554765	-0.13511444	-0.93861939	0.034474779	-0.027234911	-0.41420856	0.45040346	-0.20424441	-0.72609214	0.42520062	0.060968415	-0.39646245	0.42889493	-0.083647947	-0.70821023	0.4309991	-0.067190121	-0.5576459	0.81105079	-0.24713009	-0.66550779	0.83632906	0.12318205	-0.52106825	0.92069114	-0.17020529	-0.57246903	0.92493875	0.069867792	-0.74313039	0.92883695	-0.091678398	-0.59407657	1.388132	-0.2191379	-0.6275056	1.3886963	0.10087934	-0.69324629	1.4163607	-0.072243116	-0.742209	1.0797392	-0.27419677	-0.65994404	1.0336435	0.16666331	-0.65763554	0.85743919	-0.32880495	-0.44402889	0.90795052	0.18778863
